<svg id="Layer_1" data-name="Layer 1" xmlns="http://www.w3.org/2000/svg" viewBox="0 0 553.41 207">
  <defs>
    <style>
      .cls-1 {
        fill: #fff;
      }

      .cls-2 {
        fill: #0a4df9;
      }
    </style>
  </defs>
  <path d="m108.72,35.76h32.08v126.25h-33.23l-3.72-8.87c-10.83,8.87-23.46,13.32-37.87,13.32-12.71,0-24.05-2.87-34.04-8.65-9.99-5.77-17.8-13.8-23.46-24.08C2.83,123.44,0,111.81,0,98.88c0-19.49,6.19-35.49,18.59-48.05,12.4-12.53,28.19-18.82,47.39-18.82,14.56,0,27.35,4.53,38.32,13.55l4.42-9.8Zm-57.13,83.94c5.26,5.46,11.95,8.17,20.1,8.17s14.84-2.73,20.1-8.17c5.26-5.46,7.89-12.31,7.89-20.56s-2.63-15.13-7.89-20.56c-5.26-5.46-11.92-8.2-19.99-8.2s-14.95,2.73-20.21,8.2c-5.26,5.46-7.89,12.31-7.89,20.56-.03,8.25,2.6,15.1,7.89,20.56Z"/>
  <path d="m226.65,32.01c19.16,0,34.89,6.27,47.18,18.82,12.29,12.55,18.44,28.59,18.44,48.11s-6.15,35.56-18.44,48.11c-12.29,12.54-28.02,18.82-47.18,18.82-11.12,0-21.34-2.8-30.62-8.37v49.51h-42.43V36.18h29.22l5.34,10c10.81-9.44,23.63-14.17,38.49-14.17Zm-5.81,95.77c8.04,0,14.72-2.74,20.06-8.26,5.34-5.49,7.99-12.35,7.99-20.58s-2.65-15.07-7.99-20.58c-5.34-5.49-12.01-8.26-20.06-8.26s-14.72,2.74-20.06,8.26c-5.34,5.49-7.99,12.35-7.99,20.58,0,5.43,1.2,10.33,3.6,14.76,2.4,4.42,5.75,7.87,10.08,10.33,4.3,2.49,9.11,3.75,14.36,3.75Z"/>
  <path d="m372.14,128.58h16.51v37.87h-29.32c-13.75,0-24.52-3.98-32.3-11.95-7.79-7.98-11.68-18.92-11.68-32.86l-.39-51.71h-22.7v-9.99L347.71,0h8.7v36.7h31.17v33.23h-30.01l.39,44.24c0,4.51,1.27,8,3.78,10.58,2.51,2.55,5.99,3.83,10.41,3.83Z"/>
  <path d="m108.72,35.76h32.08v126.25h-33.23l-3.72-8.87c-10.83,8.87-23.46,13.32-37.87,13.32-12.71,0-24.05-2.87-34.04-8.65-9.99-5.77-17.8-13.8-23.46-24.08C2.83,123.44,0,111.81,0,98.88c0-19.49,6.19-35.49,18.59-48.05,12.4-12.53,28.19-18.82,47.39-18.82,14.56,0,27.35,4.53,38.32,13.55l4.42-9.8Zm-57.13,83.94c5.26,5.46,11.95,8.17,20.1,8.17s14.84-2.73,20.1-8.17c5.26-5.46,7.89-12.31,7.89-20.56s-2.63-15.13-7.89-20.56c-5.26-5.46-11.92-8.2-19.99-8.2s-14.95,2.73-20.21,8.2c-5.26,5.46-7.89,12.31-7.89,20.56-.03,8.25,2.6,15.1,7.89,20.56Z"/>
  <path class="cls-2" d="m357.69,69.92h168.43c15.06,0,27.29,12.23,27.29,27.29h0c0,17.51-14.22,31.73-31.73,31.73h-150.41c-7.56,0-13.7-6.14-13.7-13.7v-45.2c0-.07.05-.12.12-.12Z"/>
  <g>
    <path class="cls-1" d="m390.01,114.88c-2.3-1.25-4.07-3.01-5.32-5.29-1.25-2.28-1.87-4.89-1.87-7.82,0-4.29.89-8.08,2.66-11.37s4.25-5.86,7.44-7.7c3.19-1.84,6.86-2.76,11.02-2.76,3.11,0,5.82.62,8.13,1.85,2.31,1.23,4.09,2.97,5.34,5.22,1.25,2.25,1.87,4.84,1.87,7.77,0,4.25-.89,8.05-2.66,11.4-1.77,3.34-4.27,5.94-7.5,7.8-3.22,1.86-6.93,2.79-11.12,2.79-3.04,0-5.71-.62-8-1.87Zm14.31-10c1.3-.93,2.29-2.16,2.96-3.7.68-1.54,1.01-3.2,1.01-4.99s-.5-3.3-1.49-4.33c-1-1.03-2.42-1.54-4.28-1.54-1.76,0-3.29.46-4.61,1.37s-2.32,2.14-3.01,3.67c-.69,1.54-1.04,3.2-1.04,4.99s.5,3.31,1.49,4.36c1,1.05,2.46,1.57,4.38,1.57,1.75,0,3.28-.46,4.58-1.39Z"/>
    <path class="cls-1" d="m431.44,114.88c-2.3-1.25-4.07-3.01-5.32-5.29-1.25-2.28-1.87-4.89-1.87-7.82,0-4.29.89-8.08,2.66-11.37s4.25-5.86,7.44-7.7c3.19-1.84,6.86-2.76,11.02-2.76,3.11,0,5.82.62,8.13,1.85,2.31,1.23,4.09,2.97,5.34,5.22,1.25,2.25,1.87,4.84,1.87,7.77,0,4.25-.89,8.05-2.66,11.4-1.77,3.34-4.27,5.94-7.5,7.8-3.22,1.86-6.93,2.79-11.12,2.79-3.04,0-5.71-.62-8-1.87Zm14.31-10c1.3-.93,2.29-2.16,2.96-3.7.68-1.54,1.01-3.2,1.01-4.99s-.5-3.3-1.49-4.33c-1-1.03-2.42-1.54-4.28-1.54-1.76,0-3.29.46-4.61,1.37s-2.32,2.14-3.01,3.67c-.69,1.54-1.04,3.2-1.04,4.99s.5,3.31,1.49,4.36c1,1.05,2.46,1.57,4.38,1.57,1.75,0,3.28-.46,4.58-1.39Z"/>
    <path class="cls-1" d="m476.06,107.89h10.84l-1.52,8.51h-22.08l6.33-35.86h11.24l-4.81,27.35Z"/>
    <path class="cls-1" d="m495.33,114.12c-2.62-1.75-3.92-4.32-3.92-7.7,0-.34.03-.84.1-1.52h11.95c-.1,1.05.06,1.82.48,2.33s1.12.76,2.1.76c.61,0,1.11-.15,1.52-.46.4-.3.61-.74.61-1.32,0-.81-.4-1.49-1.19-2.03-.79-.54-2.07-1.18-3.82-1.92-1.92-.81-3.5-1.59-4.74-2.33-1.23-.74-2.3-1.76-3.22-3.04-.91-1.28-1.37-2.89-1.37-4.81,0-2.53.63-4.72,1.9-6.56,1.27-1.84,3.03-3.23,5.29-4.18,2.26-.94,4.84-1.42,7.75-1.42,2.6,0,4.92.4,6.96,1.22,2.04.81,3.65,1.98,4.81,3.52,1.17,1.54,1.75,3.35,1.75,5.44,0,.27-.03.74-.1,1.42h-12.1c.07-.4.1-.68.1-.81,0-.64-.19-1.14-.56-1.49-.37-.35-.88-.53-1.52-.53-.57,0-1.05.17-1.42.51-.37.34-.56.78-.56,1.32,0,.74.39,1.39,1.17,1.95.78.56,2.01,1.24,3.7,2.05,1.92.91,3.52,1.77,4.79,2.58,1.27.81,2.35,1.88,3.27,3.22.91,1.33,1.37,2.96,1.37,4.89,0,2.2-.58,4.17-1.75,5.93-1.17,1.76-2.85,3.13-5.04,4.13-2.2,1-4.79,1.49-7.8,1.49-4.39,0-7.89-.88-10.51-2.63Z"/>
  </g>
</svg>