<svg width="26" height="26" viewBox="0 0 26 26" fill="none" xmlns="http://www.w3.org/2000/svg">
<path fill-rule="evenodd" clip-rule="evenodd" d="M7.66675 16.1162C7.66675 14.7181 8.72393 13.5925 10.0371 13.5925C11.3503 13.5925 12.4075 14.7181 12.4075 16.1162V22.3281C12.4075 23.7262 11.3503 24.8518 10.0371 24.8518C8.72393 24.8518 7.66675 23.7262 7.66675 22.3281V16.1162Z" fill="#E01E5A" stroke="#E01E5A" stroke-width="0.790123" stroke-linecap="round" stroke-linejoin="round"/>
<path fill-rule="evenodd" clip-rule="evenodd" d="M16.1161 18.3333C14.7181 18.3333 13.5925 17.2761 13.5925 15.9629C13.5925 14.6497 14.7181 13.5925 16.1161 13.5925H22.3282C23.7262 13.5925 24.8518 14.6497 24.8518 15.9629C24.8518 17.2761 23.7262 18.3333 22.3282 18.3333H16.1161Z" fill="#ECB22D" stroke="#ECB22D" stroke-width="0.790123" stroke-linecap="round" stroke-linejoin="round"/>
<path fill-rule="evenodd" clip-rule="evenodd" d="M13.5925 3.67181C13.5925 2.27373 14.6497 1.14819 15.9629 1.14819C17.2761 1.14819 18.3333 2.27373 18.3333 3.67181V9.88381C18.3333 11.2819 17.2761 12.4074 15.9629 12.4074C14.6497 12.4074 13.5925 11.2819 13.5925 9.88381V3.67181Z" fill="#2FB67C" stroke="#2FB67C" stroke-width="0.790123" stroke-linecap="round" stroke-linejoin="round"/>
<path fill-rule="evenodd" clip-rule="evenodd" d="M3.67181 12.4075C2.27373 12.4075 1.14819 11.3503 1.14819 10.0371C1.14819 8.72393 2.27373 7.66675 3.67181 7.66675H9.88381C11.2819 7.66675 12.4074 8.72393 12.4074 10.0371C12.4074 11.3503 11.2819 12.4075 9.88381 12.4075H3.67181Z" fill="#36C5F1" stroke="#36C5F1" stroke-width="0.790123" stroke-linecap="round" stroke-linejoin="round"/>
<path fill-rule="evenodd" clip-rule="evenodd" d="M13.5927 22.4815C13.592 22.7929 13.6529 23.1015 13.7717 23.3893C13.8906 23.6772 14.0652 23.9388 14.2854 24.159C14.5057 24.3793 14.7673 24.5539 15.0551 24.6727C15.343 24.7916 15.6516 24.8525 15.963 24.8518C17.2762 24.8518 18.3334 23.7946 18.3334 22.4815C18.3341 22.17 18.2732 21.8615 18.1543 21.5736C18.0354 21.2857 17.8609 21.0241 17.6406 20.8039C17.4204 20.5836 17.1588 20.4091 16.8709 20.2902C16.583 20.1713 16.2745 20.1104 15.963 20.1111H13.5927V22.4815Z" fill="#ECB22D" stroke="#ECB22D" stroke-width="0.790123" stroke-linecap="round"/>
<path fill-rule="evenodd" clip-rule="evenodd" d="M22.4816 12.4075H20.1112V10.0371C20.1112 8.72393 21.1684 7.66675 22.4816 7.66675C23.7948 7.66675 24.8519 8.72393 24.8519 10.0371C24.8519 11.3503 23.7948 12.4075 22.4816 12.4075Z" fill="#2FB67C" stroke="#2FB67C" stroke-width="0.790123" stroke-linecap="round"/>
<path fill-rule="evenodd" clip-rule="evenodd" d="M3.51857 13.5925H5.88894V15.9629C5.88894 17.2761 4.83175 18.3333 3.51857 18.3333C3.2071 18.3339 2.89857 18.2731 2.61068 18.1542C2.3228 18.0353 2.06122 17.8607 1.84098 17.6405C1.62074 17.4202 1.44617 17.1587 1.32728 16.8708C1.20839 16.5829 1.14753 16.2744 1.1482 15.9629C1.1482 14.6497 2.20538 13.5925 3.51857 13.5925Z" fill="#E01E5A" stroke="#E01E5A" stroke-width="0.790123" stroke-linecap="round"/>
<path fill-rule="evenodd" clip-rule="evenodd" d="M12.4075 3.51857V5.88894H10.0371C9.72566 5.8896 9.41712 5.82874 9.12924 5.70986C8.84135 5.59097 8.57978 5.4164 8.35954 5.19615C8.1393 4.97591 7.96472 4.71434 7.84583 4.42645C7.72695 4.13857 7.66609 3.83004 7.66675 3.51857C7.66675 2.20538 8.72394 1.1482 10.0371 1.1482C10.3486 1.14753 10.6571 1.20839 10.945 1.32728C11.2329 1.44617 11.4945 1.62074 11.7147 1.84098C11.9349 2.06122 12.1095 2.3228 12.2284 2.61068C12.3473 2.89857 12.4082 3.2071 12.4075 3.51857Z" fill="#36C5F1" stroke="#36C5F1" stroke-width="0.790123" stroke-linecap="round"/>
</svg>
