<svg width="24" height="24" viewBox="0 0 24 24" fill="none" xmlns="http://www.w3.org/2000/svg">
<path d="M7.54753 22.0312C16.6042 22.0312 21.5577 14.4201 21.5577 7.81993C21.5577 7.60369 21.5577 7.38849 21.5434 7.17328C22.507 6.46655 23.3388 5.59146 24 4.58896C23.1013 4.9929 22.148 5.2578 21.1718 5.37483C22.1997 4.75064 22.9691 3.7689 23.3366 2.6123C22.37 3.19407 21.3126 3.60406 20.2099 3.82458C19.4675 3.02385 18.4856 2.49363 17.4162 2.31598C16.3467 2.13832 15.2494 2.32313 14.294 2.84181C13.3385 3.36049 12.5783 4.18412 12.1308 5.18525C11.6833 6.18638 11.5736 7.3092 11.8186 8.37995C9.86091 8.28039 7.94575 7.76434 6.19744 6.86529C4.44913 5.96624 2.90675 4.7043 1.67044 3.16139C1.04077 4.26093 0.847899 5.56256 1.13111 6.80128C1.41431 8.03999 2.1523 9.12266 3.19481 9.82883C2.41123 9.80526 1.64473 9.59085 0.96 9.20367V9.26691C0.960299 10.4201 1.35384 11.5377 2.07387 12.4301C2.7939 13.3225 3.79608 13.9348 4.91044 14.1631C4.18551 14.3636 3.4249 14.393 2.68706 14.2488C3.0017 15.2412 3.61428 16.1091 4.43912 16.731C5.26396 17.353 6.2598 17.6978 7.28738 17.7174C5.54376 19.1074 3.38982 19.862 1.17216 19.8597C0.780385 19.8589 0.388994 19.8349 0 19.7876C2.25181 21.2534 4.87192 22.0309 7.54753 22.0273" fill="#1DA1F2"/>
</svg>
